<svg xmlns="http://www.w3.org/2000/svg" viewBox="0 0 550 261.4"><g id="Layer_2" data-name="Layer 2"><g id="Layer_1-2" data-name="Layer 1"><path id="Group_874" data-name="Group 874" d="M457.32 218.54a49.87 49.87 0 0 1-19.64-3.62 22.94 22.94 0 0 1 17.14-20.24c14.52-3.66 21.37 2.75 21.63 9.81s-7.1 14-19.13 14m-6.63 34.84a3.91 3.91 0 0 1-.6 3.66 1.67 1.67 0 0 1-1.12.47 1.49 1.49 0 0 1-1.51-1.48 1.07 1.07 0 0 1 0-.4.34.34 0 0 1 .05-.17c.39-1.29 1.25-2.37.86-3.55a27.51 27.51 0 0 0-3.27-4.39c-.05 0 4.61 3.06 5.55 5.86m-2.89-62.27c-12.36 6.71-16.41 17-15.72 33.49a77.91 77.91 0 0 0 9.06 34.15l.13.18a6.77 6.77 0 0 0 5.22 2.49 6.69 6.69 0 0 0 5.38-10.63l-.09-.13a26.19 26.19 0 0 0-5.94-5.22 13 13 0 0 1-6.12-7.62 45.8 45.8 0 0 1-2.32-13.53 57.36 57.36 0 0 0 24.43 2c7.75-1.64 23.63-7.84 21.27-24.08-2.07-14.43-22.85-17.83-35.27-11.15M550 108.42c-.09 5.51-.17 11.06-.3 16.62a2.09 2.09 0 0 1-2.16 1.58l-3.06.21c-1 .09-1.42-.34-1.85-1.63-1.85-4.09-3.75-8.18-5.64-12.28a18.83 18.83 0 0 0-14.9-12.61c-9.26-2-19.82 1.3-21.71 11.07-2.58 13.14 8.05 17.83 18.86 23.61 16.11 8.52 25 18 20.94 35.36-4.91 18.09-22.27 25.8-41.09 21.79a43.94 43.94 0 0 1-21.2-11.14c-1-.87-.73-2.24-.79-3.45.09-7.45.17-14.9.22-22.31-.05-1.19.73-1.47 1.72-1.56l3.1-.13c.95 0 1.55.52 1.81 1.77 1.2 4.09 2.36 8.14 3.54 12.21 2.93 9.3 4.87 15.55 16.71 18.13 7.8 1.67 18.74-.74 21.24-11.29 2.41-10.08-1.19-17.23-17.53-25.75-12.8-6.81-25.29-16.41-22-34.37 2.84-15.72 21-24.85 39.45-20.8a47.91 47.91 0 0 1 21.32 9.85c3.19 2.41 3.4 3.66 3.32 5.08M436.59 84.76c16 2.24 16.55 17.83 15.72 23.08-.34 2.07-2.41 2.93-7 2.24-12.36-1.81-24.76-3.45-37.21-4.82 6.5-16.55 17.66-22 28.47-20.49m30.24 75.42c1.55-2.29 1.24-3.06.6-3.45l-2.72-2.07a1.94 1.94 0 0 0-2.28.79 32.18 32.18 0 0 1-30.06 11.2c-18.09-2.59-30.28-21.11-27.91-43.64a56.16 56.16 0 0 1 1.94-11q29.52 3.3 58.88 8.23c3.79.64 6.71.69 7.27-2.5A34.67 34.67 0 0 0 443 78.67l-.77-.1c-12.32-1.72-25-1.2-36.64 7.8a49.45 49.45 0 0 0-18.87 35.07c-1.51 16.15-.13 24.85 6.63 37.38 7.15 13.27 20.76 18.82 33.56 20.59 19.85 2.8 34.15-10.86 40-19.21M265.2 116.8c-.39-25.71-20.8-41.39-33.46-40.7a24.1 24.1 0 0 0-18.48 8.49c-8.92 9.91-11.5 19.64-10.08 37.13 1 12.92 3.19 21.53 11.33 31.61a25.81 25.81 0 0 0 23.3 10.67c17.1-.79 27.78-22.46 27.39-47.16m19.94 2c-.22 25.24-22.27 50.78-49.7 52.25a47.41 47.41 0 0 1-35.58-13.53c-11.63-11.76-14.69-20-16.28-36.35A47 47 0 0 1 201 82.27a53.28 53.28 0 0 1 32.39-13.18 51.78 51.78 0 0 1 35 12.21 48.81 48.81 0 0 1 16.7 37.51m-97.47 42a1.82 1.82 0 0 0-2.54-.36l-.22.19a33.93 33.93 0 0 1-14.69 4.61c-4.05.47-12.14-1.55-14.38-18.74-1-7.66-1.94-15.29-2.93-23-1.38-10.55-2.5-21.57-3.36-32.21q15.71-2 31.44-3.55c1.47-.13 1.85-.86 2-2.07.56-2.75 1.12-5.51 1.68-8.31.39-.95-.43-2-1.94-1.89q-17.19 1.61-34.28 3.83c-.56-7.62-2-25.5-2.54-33.12-.22-1.85-1-3.36-3-3.1a3.38 3.38 0 0 0-3.23 2.76C137.4 54 137.92 75 116.56 89c-2.84 1.85-4 3-3.71 4.82s1.85 2.5 4.1 2.16c5-.79 9.85-1.51 14.81-2.24 1.18 9.65 3.15 25 3.75 29.16.21 1.67.47 3.36.73 5 .47 3.18 2.67 23.47 4 32.82 1.34 8.69 13.65 17.87 24.55 16.54a39.1 39.1 0 0 0 24-12c.61-.79 1-1.72.22-2.59-.52-.68-.94-1.33-1.42-2m-68.44-27.47c4.18 27.05-8.22 52.4-37.3 58.4a58.76 58.76 0 0 1-38.07-3.66 10.49 10.49 0 0 0-5.78-1.31c-1.33.34-1.85 2.15-2.63 4.73-.69 2.8-1.72 3.31-3.31 3.7-1.34.34-2.72-.47-2.93-3.06-.6-5.81-5.73-34.84-6.72-41.52-.13-1.38.34-1.51 1.29-1.76l3.55-.65c.95-.22 1.51.09 1.85 1.42a46 46 0 0 0 14.69 24 39.92 39.92 0 0 0 35.27 9.52c13.36-2.85 28.9-14.35 25.37-34.85-4.09-23.47-23.21-29-43.73-31.27-7.92-.9-26.36-2.67-39.28-10.12C11.68 101.39 4.75 92 .87 77.22-2.06 66 2.84 53 9.23 44.58c7.27-9.91 19.55-16.11 33.54-19.08a79.81 79.81 0 0 1 31.7-.43c2.55.69 3.79.22 4.91-1.12 1-1.12 1.9-2.2 2.89-3.32a5.55 5.55 0 0 1 3.15-2c1.34-.21 2.41 1.47 2.8 3.49 1.42 8 8.67 30.66 9.78 35.62.21 1.18 0 1.63-1 2L94.17 61a1.11 1.11 0 0 1-1.55-.29.67.67 0 0 1-.09-.14 52.47 52.47 0 0 0-20.33-22.4c-8.14-5.3-17.83-6.67-29.94-4.09-23 5-27.52 22-24.64 33.41A27 27 0 0 0 30 85.19C38.69 90 53.46 92 61 92.51c17.83 1.49 32.22 2.89 42.64 11.43 7.45 6.11 13.13 14.3 15.59 29.37M377.17 160c-2.41-3.45-39.88-43.74-44.91-48.33a319.64 319.64 0 0 1 33.41-25.46 36.25 36.25 0 0 1 17.31-4c.56 0 1.12.09 1.68.18 1.72.13 2-.26 2.11-1.68l.4-4.14c.13-1.57-.26-2.32-1.25-2.41-1.77-.17-8 0-20.11-.9-12.61-.91-21.54-2-23-2.12-1.21 0-1.77.61-1.81 1.77 0 1.47-.13 2.93-.22 4.39s.18 2.07 1.9 2.16a11.05 11.05 0 0 1 6.3 1.76c1.42 1 1.34 2.84-.3 5.3a324.92 324.92 0 0 1-26.75 24.51 24.12 24.12 0 0 1-11.5 2.24c.26-12.19.52-24.34.79-36.53.56-27.73 1.29-61.72 2.84-72.78.39-2.8.14-4-1.45-4a20 20 0 0 0-5.86 1.72Q293.25 6.63 280 11.82c-2.59.91-3.41 1.42-3.41 2.32v2.07c0 .69.79.91 3.66 1.58 12.75 3 13.49 6.93 13.44 16.41 0 7.54 0 15.07-.13 22.61q-.12 26.94-.26 53.92c-.08 20.33-.39 32.82-.69 43 0 3-1.2 5.55-4.13 5.55h-8.44c-1.58 0-2.28.47-2.24 2.11v4c0 1.37.48 2.28 1.19 2.28 1.55 0 9.45-.82 21.7-.64 11.33.13 18.78 1.11 20.12 1.18s1.81-.65 1.89-2.5c0-1.29.09-2.63.13-3.92s-.39-1.9-2-1.94c-2.2-.09-4.43-.13-6.63-.22-3.19-.08-4.3-1.67-4.43-4.95-.05-8.09.13-16 .3-24.07.09-3.41.13-6.81.22-10.17a17.67 17.67 0 0 1 10.12 2.8c6.63 6 26.18 30.28 28.68 33.21 3.4 3.61 44.45 49.83 80.11 65.16a39.25 39.25 0 0 1 .43-9.56C417 202.92 399.9 186.9 377.2 160" fill="#3d133a"/></g></g></svg>